<svg width="24" height="24" viewBox="0 0 24 24" fill="none" xmlns="http://www.w3.org/2000/svg">
<g id="more-01">
<g id="union-1">
<path d="M14.5 12C14.5 13.5188 13.2688 14.75 11.75 14.75C10.2312 14.75 9 13.5188 9 12C9 10.4812 10.2312 9.25 11.75 9.25C13.2688 9.25 14.5 10.4812 14.5 12Z" fill="black"/>
<path d="M14.5 3.75C14.5 5.26878 13.2688 6.5 11.75 6.5C10.2312 6.5 9 5.26878 9 3.75C9 2.23122 10.2312 1 11.75 1C13.2688 1 14.5 2.23122 14.5 3.75Z" fill="black"/>
<path d="M14.5 20.25C14.5 21.7688 13.2688 23 11.75 23C10.2312 23 9 21.7688 9 20.25C9 18.7312 10.2312 17.5 11.75 17.5C13.2688 17.5 14.5 18.7312 14.5 20.25Z" fill="black"/>
</g>
</g>
</svg>
