<svg width="25" height="24" viewBox="0 0 25 24" fill="none" xmlns="http://www.w3.org/2000/svg">
<g id="checkbox-checked-toned">
<path id="union-1" opacity="0.2" d="M2.83331 7C2.83331 4.23858 5.07189 2 7.83331 2H17.8333C20.5947 2 22.8333 4.23858 22.8333 7V17C22.8333 19.7614 20.5947 22 17.8333 22H7.83331C5.07189 22 2.83331 19.7614 2.83331 17V7Z" fill="#0DFB00"/>
<path id="union-2" fill-rule="evenodd" clip-rule="evenodd" d="M17.5404 8.79289C17.9309 9.18342 17.9309 9.81658 17.5404 10.2071L12.5404 15.2071C12.1499 15.5976 11.5167 15.5976 11.1262 15.2071L8.62621 12.7071C8.23568 12.3166 8.23568 11.6834 8.62621 11.2929C9.01673 10.9024 9.6499 10.9024 10.0404 11.2929L11.8333 13.0858L16.1262 8.79289C16.5167 8.40237 17.1499 8.40237 17.5404 8.79289Z" fill="#1E761E"/>
</g>
</svg>
