<svg xmlns="http://www.w3.org/2000/svg" width="54" height="45" viewBox="0 0 54 45" fill="none">
  <rect width="54" height="45" rx="6" fill="#D8F2FF"/>
  <path d="M16.1667 13H37.8333C38.9708 13 40 14.0429 40 15.1956V30.5644C40 31.7171 38.9708 32.76 37.8333 32.76H16.1667C15.0292 32.76 14 31.7171 14 30.5644V15.1956C14 14.0429 15.0292 13 16.1667 13ZM29.1667 16.2933V17.3911H37.8333V16.2933H29.1667ZM29.1667 18.4889V19.5867H37.8333V18.4889H29.1667ZM29.1667 20.6844V21.7822H36.75V20.6844H29.1667ZM22.6667 24.9768C20.5 24.9768 16.1667 26.1733 16.1667 28.3689V29.4667H29.1667V28.3689C29.1667 26.1733 24.8333 24.9768 22.6667 24.9768ZM22.6667 16.2933C21.8047 16.2933 20.9781 16.6403 20.3686 17.2579C19.7591 17.8755 19.4167 18.7132 19.4167 19.5867C19.4167 20.4601 19.7591 21.2978 20.3686 21.9154C20.9781 22.533 21.8047 22.88 22.6667 22.88C23.5286 22.88 24.3553 22.533 24.9648 21.9154C25.5743 21.2978 25.9167 20.4601 25.9167 19.5867C25.9167 18.7132 25.5743 17.8755 24.9648 17.2579C24.3553 16.6403 23.5286 16.2933 22.6667 16.2933Z" fill="#224676"/>
</svg>
