<svg width="10" height="10" viewBox="0 0 10 10" fill="none" xmlns="http://www.w3.org/2000/svg">
<g id="edit-06" clip-path="url(#clip0_4054_1320)">
<path id="union-1" d="M8.75 5.83335V7.08335C8.75 8.00382 8.00381 8.75002 7.08333 8.75002H2.91667C1.99619 8.75002 1.25 8.00382 1.25 7.08335V2.91668C1.25 1.99621 1.99619 1.25002 2.91667 1.25002H4.16667M7.91667 4.16668L8.57741 3.50594C8.90285 3.1805 8.90285 2.65286 8.57741 2.32743L7.67259 1.42261C7.34715 1.09717 6.81951 1.09717 6.49408 1.42261L5.83333 2.08335M7.91667 4.16668L5.41667 6.66668H3.33333V4.58335L5.83333 2.08335M7.91667 4.16668L5.83333 2.08335" stroke="#10B981" stroke-linecap="round" stroke-linejoin="round"/>
</g>
<defs>
<clipPath id="clip0_4054_1320">
<rect width="10" height="10" fill="white"/>
</clipPath>
</defs>
</svg>
