<svg xmlns="http://www.w3.org/2000/svg" width="54" height="45" viewBox="0 0 54 45" fill="none">
  <rect width="54" height="45" rx="6" fill="#FDF6EC"/>
  <path d="M38.4036 18.2708L36.6252 12.9076C36.3672 12.1267 35.871 11.4475 35.2071 10.9663C34.5431 10.4852 33.7452 10.2266 32.9267 10.2273H21.0733C20.2548 10.2266 19.4569 10.4852 18.7929 10.9663C18.129 11.4475 17.6328 12.1267 17.3748 12.9076L15.5964 18.2708C15.1235 18.4697 14.7196 18.8047 14.4356 19.2337C14.1515 19.6627 14 20.1665 14 20.6818V27.2159C14 28.1804 14.5252 29.0141 15.3 29.4676V32.4432C15.3 32.7898 15.437 33.1222 15.6808 33.3673C15.9246 33.6123 16.2552 33.75 16.6 33.75H17.9C18.2448 33.75 18.5754 33.6123 18.8192 33.3673C19.063 33.1222 19.2 32.7898 19.2 32.4432V29.8296H34.8V32.4432C34.8 32.7898 34.937 33.1222 35.1808 33.3673C35.4246 33.6123 35.7552 33.75 36.1 33.75H37.4C37.7448 33.75 38.0754 33.6123 38.3192 33.3673C38.563 33.1222 38.7 32.7898 38.7 32.4432V29.4676C39.0944 29.2402 39.4222 28.9124 39.6505 28.5171C39.8787 28.1218 39.9993 27.673 40 27.2159V20.6818C40 20.1665 39.8485 19.6627 39.5644 19.2337C39.2804 18.8047 38.8765 18.4697 38.4036 18.2708ZM21.0733 12.8409H32.9254C33.4857 12.8409 33.9823 13.199 34.1591 13.7348L35.5969 18.0682H18.4031L19.8396 13.7348C19.9259 13.4745 20.0914 13.248 20.3129 13.0876C20.5343 12.9272 20.8003 12.8409 21.0733 12.8409ZM18.55 25.9091C18.2938 25.909 18.0402 25.8582 17.8036 25.7596C17.5669 25.661 17.3519 25.5165 17.1709 25.3343C16.9898 25.1522 16.8462 24.936 16.7482 24.698C16.6503 24.4601 16.5999 24.2051 16.6 23.9476C16.6001 23.6901 16.6506 23.4351 16.7487 23.1972C16.8468 22.9594 16.9906 22.7432 17.1718 22.5612C17.353 22.3792 17.5681 22.2348 17.8048 22.1364C18.0415 22.0379 18.2951 21.9873 18.5513 21.9874C19.0686 21.9875 19.5647 22.1943 19.9304 22.5621C20.2961 22.93 20.5015 23.4288 20.5013 23.9489C20.5011 24.4689 20.2954 24.9676 19.9295 25.3352C19.5636 25.7029 19.0673 25.9093 18.55 25.9091ZM35.45 25.9091C35.1938 25.909 34.9402 25.8582 34.7036 25.7596C34.4669 25.661 34.2519 25.5165 34.0709 25.3343C33.8898 25.1522 33.7462 24.936 33.6482 24.698C33.5503 24.4601 33.4999 24.2051 33.5 23.9476C33.5001 23.6901 33.5506 23.4351 33.6487 23.1972C33.7468 22.9594 33.8906 22.7432 34.0718 22.5612C34.253 22.3792 34.4681 22.2348 34.7048 22.1364C34.9415 22.0379 35.1951 21.9873 35.4513 21.9874C35.9686 21.9875 36.4647 22.1943 36.8304 22.5621C37.1961 22.93 37.4015 23.4288 37.4013 23.9489C37.4011 24.4689 37.1954 24.9676 36.8295 25.3352C36.4636 25.7029 35.9673 25.9093 35.45 25.9091Z" fill="#B96710"/>
</svg>
