<svg xmlns="http://www.w3.org/2000/svg" width="20" height="20" viewBox="0 0 20 20" fill="none">
  <path d="M19 15C19 17.2091 17.2091 19 15 19L5 19C2.79086 19 1 17.2091 1 15L1 5C1 2.79086 2.79086 0.999999 5 0.999999L15 1C17.2091 1 19 2.79086 19 5L19 15Z" fill="white"/>
  <path d="M9 13L12 10L9 7M15 1L5 0.999999C2.79086 0.999999 1 2.79086 1 5L1 15C1 17.2091 2.79086 19 5 19L15 19C17.2091 19 19 17.2091 19 15L19 5C19 2.79086 17.2091 1 15 1Z" stroke="#003D2C" stroke-linecap="round" stroke-linejoin="round"/>
</svg>
