<svg width="25" height="24" viewBox="0 0 25 24" fill="none" xmlns="http://www.w3.org/2000/svg">
<g id="checkbox-excluded-toned">
<path id="union-1" opacity="0.2" d="M2.83331 7C2.83331 4.23858 5.07189 2 7.83331 2H17.8333C20.5947 2 22.8333 4.23858 22.8333 7V17C22.8333 19.7614 20.5947 22 17.8333 22H7.83331C5.07189 22 2.83331 19.7614 2.83331 17V7Z" fill="#FF0000"/>
<path id="union-2" fill-rule="evenodd" clip-rule="evenodd" d="M9.12621 8.29289C9.51673 7.90237 10.1499 7.90237 10.5404 8.29289L12.8333 10.5858L15.1262 8.29289C15.5167 7.90237 16.1499 7.90237 16.5404 8.29289C16.9309 8.68342 16.9309 9.31658 16.5404 9.70711L14.2475 12L16.5404 14.2929C16.9309 14.6834 16.9309 15.3166 16.5404 15.7071C16.1499 16.0976 15.5167 16.0976 15.1262 15.7071L12.8333 13.4142L10.5404 15.7071C10.1499 16.0976 9.51673 16.0976 9.12621 15.7071C8.73568 15.3166 8.73568 14.6834 9.12621 14.2929L11.4191 12L9.12621 9.70711C8.73568 9.31658 8.73568 8.68342 9.12621 8.29289Z" fill="#76361E"/>
</g>
</svg>
