<svg width="16" height="16" viewBox="0 0 16 16" fill="none" xmlns="http://www.w3.org/2000/svg">
<g id="house-simple-fill">
<path id="Vector" d="M14 7.49998V13.5C14 13.6326 13.9473 13.7598 13.8536 13.8535C13.7598 13.9473 13.6326 14 13.5 14H2.50001C2.3674 14 2.24022 13.9473 2.14645 13.8535C2.05268 13.7598 2.00001 13.6326 2.00001 13.5V7.49998C1.99954 7.36851 2.02521 7.23826 2.07553 7.1168C2.12586 6.99534 2.19982 6.8851 2.29313 6.79248L7.29313 1.79248C7.48065 1.60508 7.7349 1.49982 8.00001 1.49982C8.26511 1.49982 8.51936 1.60508 8.70688 1.79248L13.7069 6.79248C13.8002 6.8851 13.8742 6.99534 13.9245 7.1168C13.9748 7.23826 14.0005 7.36851 14 7.49998Z" fill="#A1A1AA"/>
</g>
</svg>
